<svg width="16" height="16" viewBox="0 0 16 16" fill="none" xmlns="http://www.w3.org/2000/svg">
<g id="Iconos/search">
<path id="search" d="M13.8125 13.5391C14.0469 13.7734 14.0469 14.125 13.8125 14.3359C13.7188 14.4531 13.5781 14.5 13.4375 14.5C13.2734 14.5 13.1328 14.4531 13.0156 14.3359L9.875 11.1953C9.03125 11.875 7.97656 12.25 6.85156 12.25C4.17969 12.25 2 10.0703 2 7.375C2 4.70312 4.15625 2.5 6.85156 2.5C9.52344 2.5 11.7266 4.70312 11.7266 7.375C11.7266 8.52344 11.3516 9.57812 10.6719 10.3984L13.8125 13.5391ZM3.125 7.375C3.125 9.46094 4.78906 11.125 6.875 11.125C8.9375 11.125 10.625 9.46094 10.625 7.375C10.625 5.3125 8.9375 3.625 6.875 3.625C4.78906 3.625 3.125 5.3125 3.125 7.375Z" fill="#1B2431"/>
</g>
</svg>
