<svg width="16" height="16" viewBox="0 0 16 16" fill="none" xmlns="http://www.w3.org/2000/svg">
<g id="Iconos/sliders">
<path id="sliders" d="M2 12.25C2 11.9453 2.23438 11.6875 2.5625 11.6875H3.94531C4.17969 10.9375 4.90625 10.375 5.75 10.375C6.57031 10.375 7.29688 10.9375 7.53125 11.6875H13.4375C13.7422 11.6875 14 11.9453 14 12.25C14 12.5781 13.7422 12.8125 13.4375 12.8125H7.53125C7.29688 13.5859 6.57031 14.125 5.75 14.125C4.90625 14.125 4.17969 13.5859 3.94531 12.8125H2.5625C2.23438 12.8125 2 12.5781 2 12.25ZM6.5 12.25C6.5 11.8516 6.14844 11.5 5.75 11.5C5.32812 11.5 5 11.8516 5 12.25C5 12.6719 5.32812 13 5.75 13C6.14844 13 6.5 12.6719 6.5 12.25ZM10.25 6.625C11.0703 6.625 11.7969 7.1875 12.0312 7.9375H13.4375C13.7422 7.9375 14 8.19531 14 8.5C14 8.82812 13.7422 9.0625 13.4375 9.0625H12.0312C11.7969 9.83594 11.0703 10.375 10.25 10.375C9.40625 10.375 8.67969 9.83594 8.44531 9.0625H2.5625C2.23438 9.0625 2 8.82812 2 8.5C2 8.19531 2.23438 7.9375 2.5625 7.9375H8.44531C8.67969 7.1875 9.40625 6.625 10.25 6.625ZM11 8.5C11 8.10156 10.6484 7.75 10.25 7.75C9.82812 7.75 9.5 8.10156 9.5 8.5C9.5 8.92188 9.82812 9.25 10.25 9.25C10.6484 9.25 11 8.92188 11 8.5ZM13.4375 4.1875C13.7422 4.1875 14 4.44531 14 4.75C14 5.07812 13.7422 5.3125 13.4375 5.3125H8.28125C8.04688 6.08594 7.32031 6.625 6.5 6.625C5.65625 6.625 4.92969 6.08594 4.69531 5.3125H2.5625C2.23438 5.3125 2 5.07812 2 4.75C2 4.44531 2.23438 4.1875 2.5625 4.1875H4.69531C4.92969 3.4375 5.65625 2.875 6.5 2.875C7.32031 2.875 8.04688 3.4375 8.28125 4.1875H13.4375ZM5.75 4.75C5.75 5.17188 6.07812 5.5 6.5 5.5C6.89844 5.5 7.25 5.17188 7.25 4.75C7.25 4.35156 6.89844 4 6.5 4C6.07812 4 5.75 4.35156 5.75 4.75Z" fill="#1B2431"/>
</g>
</svg>
